<svg id="contact_us_img" xmlns="http://www.w3.org/2000/svg" xmlns:xlink="http://www.w3.org/1999/xlink" width="432.711" height="382.118" viewBox="0 0 432.711 382.118">
  <defs>
    <clipPath id="clip-path">
      <rect id="Rectangle_5025" data-name="Rectangle 5025" width="432.711" height="382.118" fill="none"/>
    </clipPath>
    <clipPath id="clip-path-3">
      <rect id="Rectangle_5008" data-name="Rectangle 5008" width="364.452" height="306.35" transform="translate(0 55.903)" fill="none"/>
    </clipPath>
    <clipPath id="clip-path-4">
      <rect id="Rectangle_5009" data-name="Rectangle 5009" width="38.581" height="38.581" transform="translate(6.981 163.179)" fill="none"/>
    </clipPath>
    <clipPath id="clip-path-5">
      <rect id="Rectangle_5010" data-name="Rectangle 5010" width="50.249" height="50.249" transform="translate(1.147 157.345)" fill="none"/>
    </clipPath>
    <clipPath id="clip-path-6">
      <rect id="Rectangle_5012" data-name="Rectangle 5012" width="14.807" height="11.042" transform="translate(228.531 133.105)" fill="none"/>
    </clipPath>
    <clipPath id="clip-path-7">
      <rect id="Rectangle_5013" data-name="Rectangle 5013" width="17.274" height="12.882" transform="translate(141.742 44.211)" fill="none"/>
    </clipPath>
    <clipPath id="clip-path-8">
      <rect id="Rectangle_5014" data-name="Rectangle 5014" width="46.924" height="46.923" transform="translate(187.203 23.312)" fill="none"/>
    </clipPath>
    <clipPath id="clip-path-9">
      <rect id="Rectangle_5015" data-name="Rectangle 5015" width="10.714" height="10.714" transform="translate(372.06 306.046)" fill="none"/>
    </clipPath>
    <clipPath id="clip-path-10">
      <rect id="Rectangle_5016" data-name="Rectangle 5016" width="17.957" height="17.956" transform="translate(82.918 36.538)" fill="none"/>
    </clipPath>
    <clipPath id="clip-path-11">
      <rect id="Rectangle_5017" data-name="Rectangle 5017" width="18.956" height="18.956" transform="translate(327.549 160.81)" fill="none"/>
    </clipPath>
    <clipPath id="clip-path-12">
      <rect id="Rectangle_5018" data-name="Rectangle 5018" width="17.502" height="17.501" transform="translate(45.571 212.923)" fill="none"/>
    </clipPath>
    <clipPath id="clip-path-13">
      <rect id="Rectangle_5019" data-name="Rectangle 5019" width="32.04" height="32.04" transform="translate(376.633 178.668)" fill="none"/>
    </clipPath>
    <clipPath id="clip-path-14">
      <rect id="Rectangle_5020" data-name="Rectangle 5020" width="124.201" height="101.222" transform="translate(263.581 47.675)" fill="none"/>
    </clipPath>
    <clipPath id="clip-path-15">
      <rect id="Rectangle_5021" data-name="Rectangle 5021" width="44.929" height="44.928" transform="translate(387.782)" fill="none"/>
    </clipPath>
    <clipPath id="clip-path-16">
      <rect id="Rectangle_5022" data-name="Rectangle 5022" width="88.279" height="46.887" transform="translate(40.05 74.801)" fill="none"/>
    </clipPath>
    <clipPath id="clip-path-17">
      <rect id="Rectangle_5023" data-name="Rectangle 5023" width="66.088" height="66.089" transform="translate(245.185 316.029)" fill="none"/>
    </clipPath>
  </defs>
  <g id="Group_14090" data-name="Group 14090" clip-path="url(#clip-path)">
    <g id="Group_14089" data-name="Group 14089">
      <g id="Group_14088" data-name="Group 14088" clip-path="url(#clip-path)">
        <g id="Group_14042" data-name="Group 14042" opacity="0.42">
          <g id="Group_14041" data-name="Group 14041">
            <g id="Group_14040" data-name="Group 14040" clip-path="url(#clip-path-3)">
              <path id="Path_21792" data-name="Path 21792" d="M19.132,257.222s33.638-14.676,49.1-62.534,43.5-88.157,96.629-90.864,110.584.62,129.569-27.9S272.845,46.75,272.275,96.791,359.132,238.6,363.7,309.858s-54.457,57.115-127.8,28.473S86,366.375,38.28,345.175-7.368,278.626,19.132,257.222Z" fill="none" stroke="#4570b4" stroke-miterlimit="10" stroke-width="1"/>
            </g>
          </g>
        </g>
        <g id="Group_14045" data-name="Group 14045" opacity="0.42">
          <g id="Group_14044" data-name="Group 14044">
            <g id="Group_14043" data-name="Group 14043" clip-path="url(#clip-path-4)">
              <path id="Path_21793" data-name="Path 21793" d="M45.562,182.47a19.291,19.291,0,1,1-19.29-19.29,19.29,19.29,0,0,1,19.29,19.29" fill="#4570b4"/>
            </g>
          </g>
        </g>
        <g id="Group_14048" data-name="Group 14048" opacity="0.42">
          <g id="Group_14047" data-name="Group 14047">
            <g id="Group_14046" data-name="Group 14046" clip-path="url(#clip-path-5)">
              <path id="Path_21794" data-name="Path 21794" d="M50.9,182.47a24.624,24.624,0,1,1-24.624-24.625A24.624,24.624,0,0,1,50.9,182.47Z" fill="none" stroke="#4570b4" stroke-miterlimit="10" stroke-width="1"/>
            </g>
          </g>
        </g>
        <g id="Group_14054" data-name="Group 14054" opacity="0.42">
          <g id="Group_14053" data-name="Group 14053">
            <g id="Group_14052" data-name="Group 14052" clip-path="url(#clip-path-6)">
              <path id="Path_21796" data-name="Path 21796" d="M235.511,134l-6.074,9.643h12.931Z" fill="none" stroke="#4570b4" stroke-miterlimit="10" stroke-width="1"/>
            </g>
          </g>
        </g>
        <g id="Group_14057" data-name="Group 14057" opacity="0.42">
          <g id="Group_14056" data-name="Group 14056">
            <g id="Group_14055" data-name="Group 14055" clip-path="url(#clip-path-7)">
              <path id="Path_21797" data-name="Path 21797" d="M149.856,44.211l-8.114,12.881h17.274Z" fill="#4570b4"/>
            </g>
          </g>
        </g>
        <g id="Group_14060" data-name="Group 14060" opacity="0.42">
          <g id="Group_14059" data-name="Group 14059">
            <g id="Group_14058" data-name="Group 14058" clip-path="url(#clip-path-8)">
              <path id="Path_21798" data-name="Path 21798" d="M234.127,46.773a23.462,23.462,0,1,1-23.462-23.462,23.462,23.462,0,0,1,23.462,23.462" fill="#4570b4"/>
            </g>
          </g>
        </g>
        <path id="Path_21799" data-name="Path 21799" d="M210.2,43.868l-1.319-2.524a3.311,3.311,0,0,1,1.4-4.469,2.259,2.259,0,0,0,.955-3.047l-1.974-3.776a2.256,2.256,0,0,0-3.046-.955L204.5,30a8.891,8.891,0,0,0-3.778,3.794l-.5.97a5.78,5.78,0,0,0,.011,5.334l3.689,7.058,2.462,4.712,3.689,7.058a5.78,5.78,0,0,0,4.373,3.054l1.084.142a8.892,8.892,0,0,0,5.271-.936l1.719-.9a2.258,2.258,0,0,0,.955-3.046L221.5,53.46a2.256,2.256,0,0,0-3.046-.955,3.313,3.313,0,0,1-4.47-1.4l-1.319-2.524Z" fill="#fff"/>
        <g id="Group_14063" data-name="Group 14063" opacity="0.42">
          <g id="Group_14062" data-name="Group 14062">
            <g id="Group_14061" data-name="Group 14061" clip-path="url(#clip-path-9)">
              <circle id="Ellipse_51" data-name="Ellipse 51" cx="4.857" cy="4.857" r="4.857" transform="translate(372.56 306.546)" fill="none" stroke="#4570b4" stroke-miterlimit="10" stroke-width="1"/>
            </g>
          </g>
        </g>
        <g id="Group_14066" data-name="Group 14066" opacity="0.42">
          <g id="Group_14065" data-name="Group 14065">
            <g id="Group_14064" data-name="Group 14064" clip-path="url(#clip-path-10)">
              <path id="Path_21800" data-name="Path 21800" d="M100.875,45.516A8.978,8.978,0,1,1,91.9,36.538a8.978,8.978,0,0,1,8.978,8.978" fill="#fff"/>
            </g>
          </g>
        </g>
        <g id="Group_14069" data-name="Group 14069" opacity="0.42">
          <g id="Group_14068" data-name="Group 14068">
            <g id="Group_14067" data-name="Group 14067" clip-path="url(#clip-path-11)">
              <circle id="Ellipse_52" data-name="Ellipse 52" cx="8.978" cy="8.978" r="8.978" transform="translate(328.049 161.31)" fill="none" stroke="#4570b4" stroke-miterlimit="10" stroke-width="1"/>
            </g>
          </g>
        </g>
        <g id="Group_14072" data-name="Group 14072" opacity="0.42">
          <g id="Group_14071" data-name="Group 14071">
            <g id="Group_14070" data-name="Group 14070" clip-path="url(#clip-path-12)">
              <path id="Path_21801" data-name="Path 21801" d="M63.072,221.673a8.751,8.751,0,1,1-8.751-8.751,8.751,8.751,0,0,1,8.751,8.751" fill="#4570b4"/>
            </g>
          </g>
        </g>
        <g id="Group_14075" data-name="Group 14075" opacity="0.42">
          <g id="Group_14074" data-name="Group 14074">
            <g id="Group_14073" data-name="Group 14073" clip-path="url(#clip-path-13)">
              <circle id="Ellipse_53" data-name="Ellipse 53" cx="15.52" cy="15.52" r="15.52" transform="translate(377.133 179.168)" fill="none" stroke="#fff" stroke-miterlimit="10" stroke-width="1"/>
            </g>
          </g>
        </g>
        <g id="Group_14078" data-name="Group 14078" opacity="0.42">
          <g id="Group_14077" data-name="Group 14077">
            <g id="Group_14076" data-name="Group 14076" clip-path="url(#clip-path-14)">
              <path id="Path_21802" data-name="Path 21802" d="M379.462,47.675H271.9A8.321,8.321,0,0,0,263.581,56v64.971a8.321,8.321,0,0,0,8.321,8.32h68.6v16.379a3.224,3.224,0,0,0,5.3,2.467l22.393-18.846h11.271a8.321,8.321,0,0,0,8.321-8.32V56a8.321,8.321,0,0,0-8.321-8.321" fill="#9b9b9b" opacity="0.4"/>
            </g>
          </g>
        </g>
        <path id="Path_21803" data-name="Path 21803" d="M406.7,55.778a49.146,49.146,0,0,1-7.6,26.36c-.76,1.22-1.58,2.41-2.45,3.55a47.677,47.677,0,0,1-37.99,18.97,47.059,47.059,0,0,1-22-5.42,49.337,49.337,0,0,1-25.61-49.99c3.13-23.91,23.26-42.36,47.61-42.36,26.53,0,48.04,21.89,48.04,48.89" fill="#68a8de"/>
        <path id="Path_21804" data-name="Path 21804" d="M396.654,85.684a47.677,47.677,0,0,1-37.99,18.97,47.059,47.059,0,0,1-22-5.42c.9-2.25,3.66-8.22,8.55-11.56,6.1-4.18,24.64-6.69,37.5-5.59,7.59.64,11.78,2.33,13.94,3.6" fill="#fc507f"/>
        <path id="Path_21805" data-name="Path 21805" d="M337.027,30.98l.5,23.872s.758,24.387,20.605,23.955,24.04-30.56,24.04-30.56L379.053,29.97s-23.2-15.483-42.026,1.01" fill="#ffe4e4"/>
        <path id="Path_21806" data-name="Path 21806" d="M358.269,73.07s1.474,9.23-.75,12.249,4.417,13.5,4.417,13.5l15.368-14.1a176.432,176.432,0,0,1-.744-19.386Z" fill="#ffe4e4"/>
        <path id="Path_21807" data-name="Path 21807" d="M337.143,36.464a34.154,34.154,0,0,0,11.818,1.283c6.108-.536,8.25-3,8.25-3a15.009,15.009,0,0,0,5.358.857A11.588,11.588,0,0,0,368.354,34a13.659,13.659,0,0,0-1.285,8.785c.964,4.929,4.178,6.215,4.178,6.215s2.036-4.929,5.572-4.929,4.822,3.75,3.911,8.679-6.59,6.107-6.59,6.107l2.421,6.485s9.15-9.807,10.222-20.628-4.393-14.036-4.393-14.036.456-8.035-10.272-10.821-17.8-2.572-25.835,2.036c0,0-6.75-5.143-12.429-2.036s-4.071,9.75-1.285,11.464c0,0-5.465,1.393-4.286,8.143s9.054,6.222,9.054,6.222Z" fill="#00496a"/>
        <path id="Path_21808" data-name="Path 21808" d="M358.135,78.806s14.425-3.817,15.854-13.467c0,0,3.578,13.991-15.854,18.742,0,0,.575-4.157,0-5.275" fill="#f2cece"/>
        <g id="Group_14081" data-name="Group 14081" opacity="0.42">
          <g id="Group_14080" data-name="Group 14080">
            <g id="Group_14079" data-name="Group 14079" clip-path="url(#clip-path-15)">
              <path id="Path_21809" data-name="Path 21809" d="M432.711,22.465A22.464,22.464,0,1,1,410.247,0a22.464,22.464,0,0,1,22.464,22.464" fill="#4570b4"/>
            </g>
          </g>
        </g>
        <path id="Path_21810" data-name="Path 21810" d="M407.71,28.512l-.08-1.045a9.224,9.224,0,0,1,2.491-6.953c1.808-2.13,2.813-3.7,2.813-5.506,0-2.05-1.286-3.416-3.817-3.457a7.151,7.151,0,0,0-4.06,1.246l-.964-2.532a10.541,10.541,0,0,1,5.747-1.608c4.622,0,6.712,2.854,6.712,5.909,0,2.733-1.528,4.7-3.456,6.993-1.769,2.09-2.412,3.858-2.292,5.908l.041,1.045Zm-.884,5.627a2.376,2.376,0,0,1,2.411-2.532,2.515,2.515,0,1,1-2.411,2.532" fill="#fff"/>
        <path id="Path_21811" data-name="Path 21811" d="M372.05,286.559a2.141,2.141,0,0,1-.268.574q-2.846,4.123-6.013,8h-.009c-68.635,84.346-245.149,84.346-245.149,84.346V278.811H371.782s.966,5.481.268,7.748" fill="#a6d6f7"/>
        <path id="Path_21812" data-name="Path 21812" d="M372.05,286.559a2.141,2.141,0,0,1-.268.574q-2.846,4.123-6.013,8h-.009l-245.149,27.9V286.559Z" fill="#8cc6e5"/>
        <path id="Path_21813" data-name="Path 21813" d="M235.9,207.6l-12.15,12.88a77.375,77.375,0,0,1-5.47-6.48,71.191,71.191,0,0,1-4.36-6.44,41.7,41.7,0,0,1-4.46-9.91c-3.2-11.45-1.89-35.6-1.89-35.6s5.18.56,6.95,2.53c9.97,11.1,21.38,43.02,21.38,43.02" fill="#fc507f"/>
        <path id="Path_21814" data-name="Path 21814" d="M190.23,249.675h-87l-7.945-66.9a13.986,13.986,0,0,1,11.944-15.606l5.235-.683,66.478-8.64Z" fill="#4570b4"/>
        <path id="Path_21815" data-name="Path 21815" d="M168.985,160.058s-28.312,9.1-29.846,11.446,11.76,43.833,11.76,43.833l-2.557,34.337h57.647l2.9-32.768a29.871,29.871,0,0,0,6.554-17.958c.383-11.186-7.879-36.9-7.879-36.9l-20.114-2.641Z" fill="#fc507f"/>
        <path id="Path_21816" data-name="Path 21816" d="M177.09,95.607s-19.735-8.485-33.743,11.314.5,50.924.5,50.924,35.746-4.667,45.641-5.621,11.9-.954,11.9-.954S206.481,120,195.6,108.5s-18.512-12.9-18.512-12.9" fill="#00496a"/>
        <path id="Path_21817" data-name="Path 21817" d="M184.433,172.828l-16.66-11.42a26.528,26.528,0,0,0,1.03-8.74,13.729,13.729,0,0,0-.52-2.86,11,11,0,0,0-.51-1.35l16.66-.83s.11,1.35.42,3.09a23.291,23.291,0,0,0,1.18,4.35,7.61,7.61,0,0,0,1.52,2.57c2.55,2.59-3.12,15.19-3.12,15.19" fill="#ffe4e4"/>
        <path id="Path_21818" data-name="Path 21818" d="M186.033,155.068c-2.14.07-11.33.21-17.23-2.4a13.729,13.729,0,0,0-.52-2.86s11.23,1.37,16.57.91a23.291,23.291,0,0,0,1.18,4.35" fill="#f2cece"/>
        <path id="Path_21819" data-name="Path 21819" d="M193.8,103.122l2.777,22.96s3.641,23.659-15.451,25.955-25.51-19.773-25.51-19.773l-2.256-24.373s20.133-18.015,40.44-4.769" fill="#ffe4e4"/>
        <path id="Path_21820" data-name="Path 21820" d="M185.1,104.9s-2.5,6.143-10.712,10.5a50.122,50.122,0,0,1-14.115,4.929s-1.1,6.466-4.783,10.524c0,0-6.379-12.1-3.775-22.523s16.054-15.454,27.857-14.394,16.054,5.386,17.617,12.274-1.054,16.184-1.054,16.184S193.631,107.046,185.1,104.9" fill="#00496a"/>
        <path id="Path_21821" data-name="Path 21821" d="M153.365,125.794s-2.273-17.461,11.195-26.733c8.77-6.039,19.807-4.431,19.807-4.431s-6.963-5.241-20.675.81-14.406,19.733-13.017,30.354Z" fill="#68a8de"/>
        <path id="Path_21822" data-name="Path 21822" d="M123.071,249.675H103.226l-7.945-66.9a13.986,13.986,0,0,1,11.944-15.606l5.235-.683Z" fill="#375c93"/>
        <path id="Path_21823" data-name="Path 21823" d="M171.987,147.831c-9.108,0-15.869-6.341-16.171-6.629l1.223-1.33c.073.071,7.463,6.971,16.7,6.051l.175,1.812a19.154,19.154,0,0,1-1.927.1" fill="#375c93"/>
        <path id="Path_21824" data-name="Path 21824" d="M397.684,287.133H124.712a26,26,0,0,1-19.115-8.284L90.605,262.591c-5.816-6.308-1.186-16.3,7.553-16.3H364.642a36.182,36.182,0,0,1,24.685,9.645l15.387,14.371c6.546,6.114,2.07,16.825-7.03,16.825" fill="#68a8de"/>
        <path id="Path_21825" data-name="Path 21825" d="M273.2,165.9c-.492.267-1.263.718-2.1,1.219l-.161-.26c2.5-1.591,6.194-4.076,5.944-4.683-.375-.911-2.25-.435-3.643.321-.8.437-2.264,1.306-3.671,2.156l-.1-.165c2.476-1.565,6.608-4.3,6.344-4.937-.375-.911-2.25-.435-3.643.321-.882.48-2.552,1.477-4.077,2.4l-.118-.192c2.457-1.585,5.661-3.786,5.428-4.353-.375-.91-2.25-.434-3.643.322-1.878,1.02-7.332,4.392-7.332,4.393l-3.972,1.446c.857-1.393,3.268-6.536,2.143-6.536s-4.232,3.59-5.518,7.286a19.851,19.851,0,0,0-1.085,6.3l-34.806,44.23s.824,1.294,2.069,3.017c3.612,4.995,12.02,6.092,16.876,2.3,3.835-3,6.863-6.96,9.827-11.006,5.585-7.624,13.916-27.848,15.874-32.69l7.877-7.384c2.159-1.4,4.912-3.294,4.709-3.788-.331-.8-1.987-.384-3.217.284" fill="#ffe4e4"/>
        <path id="Path_21826" data-name="Path 21826" d="M181.635,257.046s4.072,3,5.679,7.071-8.679,6.694-25.85.863c-12.492-4.242,8.6-17.255,20.171-7.934" fill="#00496a"/>
        <path id="Path_21827" data-name="Path 21827" d="M175.169,148.926h-2.3a1.5,1.5,0,0,1-1.486-1.512V146a1.5,1.5,0,0,1,1.486-1.512h2.3A1.5,1.5,0,0,1,176.655,146v1.415a1.5,1.5,0,0,1-1.486,1.512" fill="#00496a"/>
        <path id="Path_21828" data-name="Path 21828" d="M163.2,130.971c1.273,6.363-2.039,12.42-7.4,13.53s-10.733-3.149-12.005-9.512,2.039-12.42,7.4-13.53,10.732,3.149,12.005,9.512" fill="#4570b4"/>
        <path id="Path_21829" data-name="Path 21829" d="M157.8,132.09c.751,3.753-1.2,7.327-4.363,7.981s-6.331-1.857-7.082-5.611,1.2-7.326,4.363-7.981,6.331,1.858,7.082,5.611" fill="#68a8de"/>
        <path id="Path_21830" data-name="Path 21830" d="M143.8,169s-4.863.73-6.836,3.87c-8.456,13.462-24.925,54.628-24.925,54.628l15.881,7.024s20.879-24.193,22.8-35.7S143.8,169,143.8,169" fill="#fc507f"/>
        <path id="Path_21831" data-name="Path 21831" d="M126.422,231.009l32.594,21.2-4.6,10.21s-29.334-10.535-38.345-17.364-4.027-17.559-4.027-17.559,4.985-.585,14.38,3.512" fill="#ffe4e4"/>
        <path id="Path_21832" data-name="Path 21832" d="M158.057,251.885s10.992-.52,14.955-.52,10.865,6.5,10.1,8.584-8.692-4.292-8.692-4.292l-.447.845s7.03,4.293,7.413,5.918-1.214,1.366-3.515.391a50.757,50.757,0,0,1-5.752-3.187l-.383.455s6.646,4.1,6.646,5.593-4.793-.2-8.308-2.536l-.447.715s4.346,2.211,4.665,3.642-2.045.846-4.665-.39-5.049-1.366-8.436-1.886a24.256,24.256,0,0,1-7.407-3.026Z" fill="#ffe4e4"/>
        <path id="Path_21833" data-name="Path 21833" d="M360.131,192.417,344.5,270.81H228.7l15.541-77.941a3.487,3.487,0,0,1,3.4-2.831H358.22a1.975,1.975,0,0,1,1.911,2.379" fill="#4570b4"/>
        <path id="Path_21834" data-name="Path 21834" d="M228.7,270.81l-31.814-10.349a2.729,2.729,0,0,1,.844-5.324h34.1Z" fill="#00496a"/>
        <path id="Path_21835" data-name="Path 21835" d="M145.213,172.184s7.123,20.141,2.806,33.966c0,0,14.561-16.185-2.806-33.966" fill="#c52f58"/>
        <path id="Path_21836" data-name="Path 21836" d="M218.283,214a71.191,71.191,0,0,1-4.36-6.44c2.94-11.55-3.9-37.27-3.9-37.27,14.99,19.11,10.81,36.86,8.26,43.71" fill="#c52f58"/>
        <path id="Path_21837" data-name="Path 21837" d="M251.205,194.688,344.5,270.81H238.131Z" fill="#375c93"/>
        <path id="Path_21838" data-name="Path 21838" d="M313.038,234.584a9.3,9.3,0,1,1-9.3-9.3,9.3,9.3,0,0,1,9.3,9.3" fill="#a6d6f7"/>
        <path id="Path_21839" data-name="Path 21839" d="M168.693,156.814l15.74,16.015s-2.731,3.862-7.275,3.755-7.1-5.884-8.384-8.89a32.993,32.993,0,0,0-3.909-6.285Z" fill="#ffa9b3"/>
        <path id="Path_21840" data-name="Path 21840" d="M184.433,172.828s4.056,2.467,8.02.753,2.893-4.334,1.5-7.1a62.583,62.583,0,0,1-2.893-7.69l-4.518-2.6s.8,10.528-2.109,16.638" fill="#ffa9b3"/>
        <path id="Path_21841" data-name="Path 21841" d="M208.7,203.76,169.04,207.6s8.892,6.377,22.583,4.448S208.7,203.76,208.7,203.76" fill="#c52f58"/>
        <g id="Group_14084" data-name="Group 14084" opacity="0.42">
          <g id="Group_14083" data-name="Group 14083">
            <g id="Group_14082" data-name="Group 14082" clip-path="url(#clip-path-16)">
              <path id="Path_21842" data-name="Path 21842" d="M120.051,74.8H48.328a8.278,8.278,0,0,0-8.278,8.278V102.09a8.278,8.278,0,0,0,8.278,8.278h60.417l19.584,11.32V83.079a8.278,8.278,0,0,0-8.278-8.278" fill="#4570b4"/>
            </g>
          </g>
        </g>
        <line id="Line_210" data-name="Line 210" x2="74.712" transform="translate(45.562 83.403)" fill="none" stroke="#fff" stroke-linecap="round" stroke-linejoin="round" stroke-width="1"/>
        <line id="Line_211" data-name="Line 211" x2="74.712" transform="translate(45.562 92.523)" fill="none" stroke="#fff" stroke-linecap="round" stroke-linejoin="round" stroke-width="1"/>
        <line id="Line_212" data-name="Line 212" x2="74.712" transform="translate(45.562 101.643)" fill="none" stroke="#fff" stroke-linecap="round" stroke-linejoin="round" stroke-width="1"/>
        <path id="Path_21843" data-name="Path 21843" d="M124.157,295.851c1.877-15.518-10.371-13.186-18.748-5s-16.587,3.615-7.3-11.678,16.1-20,14.809-27.7-8-4.332-19.623,2.072-.638-10.316-1.515-26.178-16.628-7.937-17.952,5.415,4.638,28.3-3.007,25.336-12.267-20.7-19.218-12.329,19.62,36.758,18.727,45.328-20.009-17.545-25.5-8.947S63.1,348.194,83.671,346.586c26.133-2.044,38.609-35.217,40.486-50.735" fill="#e64873"/>
        <path id="Path_21844" data-name="Path 21844" d="M81.814,234.649a190.348,190.348,0,0,0-1.971,40.731c1.314,22.776,4.291,80.078,4.291,80.078" fill="none" stroke="#aa4451" stroke-miterlimit="10" stroke-width="1"/>
        <path id="Path_21845" data-name="Path 21845" d="M59.477,257.222s15.1,17.916,20.578,21.87c0,0,19.5-18.787,23.22-21.87" fill="none" stroke="#aa4451" stroke-miterlimit="10" stroke-width="1"/>
        <path id="Path_21846" data-name="Path 21846" d="M50.56,293.094s22.7,22.835,31.576,24.35l33.4-22.391" fill="none" stroke="#aa4451" stroke-miterlimit="10" stroke-width="1"/>
        <path id="Path_21847" data-name="Path 21847" d="M74.748,337.766s9.839-21.757,4.538-33.447S66.384,299.489,64,308.8s-10.1,9.612-10.1-5.083,2.765-20.9-1.421-25.752-7.464.372-12.887,9.822-4.847-6.967-12.228-17.725-15.054,1.522-10.289,11.457,15.325,17.883,8.7,19.062-17.438-9.3-18.745-.456S36.467,317.558,39.5,323.953s-21.525-3.779-21.711,4.6S46.168,351.63,59.1,349.441s15.646-11.675,15.646-11.675" fill="#fc507f"/>
        <path id="Path_21848" data-name="Path 21848" d="M22.906,276.6s37.446,60.17,45.33,78.857" fill="none" stroke="#aa4451" stroke-miterlimit="10" stroke-width="1"/>
        <path id="Path_21849" data-name="Path 21849" d="M16.774,305.164l26.338,4.694,5.415-22.651" fill="none" stroke="#aa4451" stroke-miterlimit="10" stroke-width="1"/>
        <path id="Path_21850" data-name="Path 21850" d="M30.694,332.186l28.137,4.87,11.6-25.542" fill="none" stroke="#aa4451" stroke-miterlimit="10" stroke-width="1"/>
        <path id="Path_21851" data-name="Path 21851" d="M58.017,355.458h47.594l-4.088,24.023H62.981Z" fill="#375c93"/>
        <path id="Path_21852" data-name="Path 21852" d="M106.192,362.1H57.873a3.214,3.214,0,0,1-3.214-3.214v-2.55a3.215,3.215,0,0,1,3.214-3.215h48.319a3.215,3.215,0,0,1,3.214,3.215v2.55a3.214,3.214,0,0,1-3.214,3.214" fill="#4570b4"/>
        <g id="Group_14087" data-name="Group 14087" opacity="0.42">
          <g id="Group_14086" data-name="Group 14086">
            <g id="Group_14085" data-name="Group 14085" clip-path="url(#clip-path-17)">
              <path id="Path_21853" data-name="Path 21853" d="M311.273,349.074a33.045,33.045,0,1,1-33.044-33.044,33.044,33.044,0,0,1,33.044,33.044" fill="#4570b4"/>
            </g>
          </g>
        </g>
        <path id="Path_21854" data-name="Path 21854" d="M298.992,336.867H257.466a2.059,2.059,0,0,0-2.059,2.058v22.884a2.059,2.059,0,0,0,2.059,2.058h41.526a2.058,2.058,0,0,0,2.058-2.058V338.925a2.058,2.058,0,0,0-2.058-2.058m.615,3.3-19.5,12.75a1,1,0,0,1-1.036.035L256.356,340.2a1,1,0,1,1,.979-1.744l22.186,12.453,18.992-12.418a1,1,0,1,1,1.094,1.674" fill="#fff"/>
        <path id="Path_21855" data-name="Path 21855" d="M315.982,333.263a12.246,12.246,0,1,1-12.246-12.246,12.246,12.246,0,0,1,12.246,12.246" fill="#fc507f"/>
      </g>
    </g>
  </g>
</svg>
